<?xml version="1.0" encoding="UTF-8"?>
<svg width="19px" height="15px" viewBox="0 0 19 15" version="1.1" xmlns="http://www.w3.org/2000/svg" xmlns:xlink="http://www.w3.org/1999/xlink">
    <!-- Generator: Sketch 51.3 (57544) - http://www.bohemiancoding.com/sketch -->
    <title>credit-card (85)</title>
    <desc>Created with Sketch.</desc>
    <defs></defs>
    <g id="Page-1" stroke="none" stroke-width="1" fill="none" fill-rule="evenodd">
        <g id="home-wawcadeiras" transform="translate(-786.000000, -621.000000)" fill="#FF7000">
            <g id="meio" transform="translate(431.000000, 136.000000)">
                <g id="regua" transform="translate(0.000000, 484.000000)">
                    <g id="10x" transform="translate(355.000000, 0.000000)">
                        <g id="credit-card-(85)" transform="translate(0.000000, 1.000000)">
                            <g>
                                <path d="M18.506969,0.485386364 C18.1973971,0.180443182 17.8252532,0.0279886364 17.3905719,0.0279886364 L1.58094536,0.0279886364 C1.1461949,0.0279886364 0.774120219,0.180409091 0.464340619,0.485386364 C0.154734062,0.790397727 0,1.15690909 0,1.58519318 L0,13.4206364 C0,13.8490227 0.154734062,14.2155682 0.464340619,14.5205455 C0.774120219,14.8255227 1.1461949,14.9780114 1.58094536,14.9780114 L17.3905719,14.9780114 C17.8252532,14.9780114 18.1973625,14.8255227 18.506969,14.5205455 C18.816541,14.2156023 18.9714827,13.8490568 18.9714827,13.4206364 L18.9714827,1.58519318 C18.9714827,1.15690909 18.816541,0.790397727 18.506969,0.485386364 Z M17.7065811,13.420875 C17.7065811,13.5053523 17.6753297,13.5781364 17.6127577,13.6399773 C17.5502204,13.7013409 17.4760893,13.732125 17.3905719,13.732125 L1.58094536,13.732125 C1.49535883,13.732125 1.42122769,13.7013409 1.35865574,13.6397386 C1.2961184,13.5779318 1.26479781,13.5051136 1.26479781,13.4206364 L1.26479781,7.503 L17.7066157,7.503 L17.7066157,13.420875 L17.7065811,13.420875 Z M17.7065811,3.76530682 L1.26476321,3.76530682 L1.26476321,1.58505682 C1.26476321,1.50071591 1.29597996,1.42786364 1.35862113,1.36609091 C1.42122769,1.304625 1.49535883,1.27377273 1.58091075,1.27377273 L17.3905373,1.27377273 C17.4760546,1.27377273 17.5501858,1.30448864 17.6127231,1.36609091 C17.6752951,1.42786364 17.7065464,1.50071591 17.7065464,1.58505682 L17.7065811,3.76530682 Z" id="Shape" fill-rule="nonzero"></path>
                                <rect id="Rectangle-path" fill-rule="nonzero" x="2.52959563" y="11.2404205" width="2.5294918" height="1.24595455"></rect>
                                <rect id="Rectangle-path" fill-rule="nonzero" x="6.32391985" y="11.2404205" width="3.79425501" height="1.24595455"></rect>
                            </g>
                        </g>
                    </g>
                </g>
            </g>
        </g>
    </g>
</svg>