<svg width="21px" height="14px" viewBox="0 0 21 14" version="1.1" xmlns="http://www.w3.org/2000/svg">
    <title>credit-card (74)</title>
    <desc>Created with Sketch.</desc>
    <g id="home" stroke="none" stroke-width="1" fill="none" fill-rule="evenodd" transform="translate(-1400.000000, -1502.000000)">
        <g id="regua-e-news" transform="translate(431.000000, 1472.000000)" fill="#D4B65D" fill-rule="nonzero">
            <g id="Group-7" transform="translate(969.000000, 28.000000)">
                <g id="credit-card-(74)" transform="translate(0.000000, 2.000000)">
                    <path d="M0,6 L0,12.8571429 C0,13.488 0.5893125,14 1.3125,14 L19.6875,14 C20.412,14 21,13.488 21,12.8571429 L21,6 L0,6 Z M7.21875,10.5714286 L3.28125,10.5714286 C2.919,10.5714286 2.625,10.3154286 2.625,10 C2.625,9.68457143 2.919,9.42857143 3.28125,9.42857143 L7.21875,9.42857143 C7.581,9.42857143 7.875,9.68457143 7.875,10 C7.875,10.3154286 7.581,10.5714286 7.21875,10.5714286 Z M16.40625,11.7142857 C15.899625,11.7142857 15.442875,11.5428571 15.09375,11.2697143 C14.744625,11.5428571 14.287875,11.7142857 13.78125,11.7142857 C12.6945,11.7142857 11.8125,10.9462857 11.8125,10 C11.8125,9.05371429 12.6945,8.28571429 13.78125,8.28571429 C14.287875,8.28571429 14.744625,8.45714286 15.09375,8.73028571 C15.442875,8.45714286 15.899625,8.28571429 16.40625,8.28571429 C17.493,8.28571429 18.375,9.05371429 18.375,10 C18.375,10.9462857 17.493,11.7142857 16.40625,11.7142857 Z" id="Shape"></path>
                    <path d="M19.6875,0 L1.3125,0 C0.5893125,0 0,0.449 0,1 L0,2 L21,2 L21,1 C21,0.449 20.412,0 19.6875,0 Z" id="Shape"></path>
                </g>
            </g>
        </g>
    </g>
</svg>