<svg width="21px" height="17px" viewBox="0 0 21 17" version="1.1" xmlns="http://www.w3.org/2000/svg">
    <title>barcode (32)</title>
    <desc>Created with Sketch.</desc>
    <g id="home" stroke="none" stroke-width="1" fill="none" fill-rule="evenodd" transform="translate(-1214.000000, -1501.000000)">
        <g id="regua-e-news" transform="translate(431.000000, 1472.000000)" fill="#D4B65D" fill-rule="nonzero">
            <g id="Group-6" transform="translate(783.000000, 28.000000)">
                <g id="barcode-(32)" transform="translate(0.000000, 1.000000)">
                    <path d="M3.33333333,0 L0.666666667,0 C0.298666667,0 0,0.298666667 0,0.666666667 L0,3.33333333 C0,3.70133333 0.298666667,4 0.666666667,4 C1.03466667,4 1.33333333,3.70133333 1.33333333,3.33333333 L1.33333333,1.33333333 L3.33333333,1.33333333 C3.70133333,1.33333333 4,1.03466667 4,0.666666667 C4,0.298666667 3.70133333,0 3.33333333,0 Z" id="Shape"></path>
                    <path d="M20.3333333,13 C19.9653333,13 19.6666667,13.2986667 19.6666667,13.6666667 L19.6666667,15.6666667 L17.6666667,15.6666667 C17.2986667,15.6666667 17,15.9653333 17,16.3333333 C17,16.7013333 17.2986667,17 17.6666667,17 L20.3333333,17 C20.7013333,17 21,16.7013333 21,16.3333333 L21,13.6666667 C21,13.2986667 20.7013333,13 20.3333333,13 Z" id="Shape"></path>
                    <path d="M20.3333333,0 L17.6666667,0 C17.2986667,0 17,0.298666667 17,0.666666667 C17,1.03466667 17.2986667,1.33333333 17.6666667,1.33333333 L19.6666667,1.33333333 L19.6666667,3.33333333 C19.6666667,3.70133333 19.9653333,4 20.3333333,4 C20.7013333,4 21,3.70133333 21,3.33333333 L21,0.666666667 C21,0.298666667 20.7013333,0 20.3333333,0 Z" id="Shape"></path>
                    <path d="M3.33333333,15.6666667 L1.33333333,15.6666667 L1.33333333,13.6666667 C1.33333333,13.2986667 1.03466667,13 0.666666667,13 C0.298666667,13 0,13.2986667 0,13.6666667 L0,16.3333333 C0,16.7013333 0.298666667,17 0.666666667,17 L3.33333333,17 C3.70133333,17 4,16.7013333 4,16.3333333 C4,15.9653333 3.70133333,15.6666667 3.33333333,15.6666667 Z" id="Shape"></path>
                    <rect id="Rectangle-path" x="3" y="3" width="2" height="12"></rect>
                    <rect id="Rectangle-path" x="5" y="3" width="2" height="8"></rect>
                    <rect id="Rectangle-path" x="9" y="3" width="2" height="8"></rect>
                    <rect id="Rectangle-path" x="11" y="3" width="2" height="12"></rect>
                    <rect id="Rectangle-path" x="14" y="3" width="2" height="8"></rect>
                    <rect id="Rectangle-path" x="17" y="3" width="2" height="12"></rect>
                    <rect id="Rectangle-path" x="5" y="13" width="2" height="2"></rect>
                    <rect id="Rectangle-path" x="9" y="13" width="2" height="2"></rect>
                    <rect id="Rectangle-path" x="14" y="13" width="2" height="2"></rect>
                </g>
            </g>
        </g>
    </g>
</svg>