<?xml version="1.0" encoding="UTF-8"?>
<svg width="22px" height="15px" viewBox="0 0 22 15" version="1.1" xmlns="http://www.w3.org/2000/svg" xmlns:xlink="http://www.w3.org/1999/xlink">
    <!-- Generator: Sketch 51.3 (57544) - http://www.bohemiancoding.com/sketch -->
    <title>barcode (40)</title>
    <desc>Created with Sketch.</desc>
    <defs></defs>
    <g id="Page-1" stroke="none" stroke-width="1" fill="none" fill-rule="evenodd">
        <g id="home-wawcadeiras" transform="translate(-433.000000, -621.000000)" fill="#FF7000">
            <g id="meio" transform="translate(431.000000, 136.000000)">
                <g id="regua" transform="translate(0.000000, 484.000000)">
                    <g id="10%" transform="translate(2.000000, 0.000000)">
                        <g id="barcode-(40)" transform="translate(0.000000, 1.000000)">
                            <g id="Shape">
                                <path d="M17.015625,11.4705882 C16.7784577,11.4705882 16.5859375,11.668256 16.5859375,11.9117647 C16.5859375,12.1552734 16.7784577,12.3529412 17.015625,12.3529412 C17.2527923,12.3529412 17.4453125,12.1552734 17.4453125,11.9117647 C17.4453125,11.668256 17.2527923,11.4705882 17.015625,11.4705882 Z" fill-rule="nonzero"></path>
                                <path d="M15.296875,11.4705882 C15.0597077,11.4705882 14.8671875,11.668256 14.8671875,11.9117647 C14.8671875,12.1552734 15.0597077,12.3529412 15.296875,12.3529412 C15.5340423,12.3529412 15.7265625,12.1552734 15.7265625,11.9117647 C15.7265625,11.668256 15.5340423,11.4705882 15.296875,11.4705882 Z" fill-rule="nonzero"></path>
                                <path d="M13.578125,11.4705882 C13.3409577,11.4705882 13.1484375,11.668256 13.1484375,11.9117647 C13.1484375,12.1552734 13.3409577,12.3529412 13.578125,12.3529412 C13.8152923,12.3529412 14.0078125,12.1552734 14.0078125,11.9117647 C14.0078125,11.668256 13.8152923,11.4705882 13.578125,11.4705882 Z" fill-rule="nonzero"></path>
                                <path d="M11.859375,11.4705882 C11.6222077,11.4705882 11.4296875,11.668256 11.4296875,11.9117647 C11.4296875,12.1552734 11.6222077,12.3529412 11.859375,12.3529412 C12.0965423,12.3529412 12.2890625,12.1552734 12.2890625,11.9117647 C12.2890625,11.668256 12.0965423,11.4705882 11.859375,11.4705882 Z" fill-rule="nonzero"></path>
                                <path d="M10.140625,11.4705882 C9.90345765,11.4705882 9.7109375,11.668256 9.7109375,11.9117647 C9.7109375,12.1552734 9.90345765,12.3529412 10.140625,12.3529412 C10.3777923,12.3529412 10.5703125,12.1552734 10.5703125,11.9117647 C10.5703125,11.668256 10.3777923,11.4705882 10.140625,11.4705882 Z" fill-rule="nonzero"></path>
                                <path d="M8.421875,11.4705882 C8.18470765,11.4705882 7.9921875,11.668256 7.9921875,11.9117647 C7.9921875,12.1552734 8.18470765,12.3529412 8.421875,12.3529412 C8.65904235,12.3529412 8.8515625,12.1552734 8.8515625,11.9117647 C8.8515625,11.668256 8.65904235,11.4705882 8.421875,11.4705882 Z" fill-rule="nonzero"></path>
                                <path d="M6.703125,11.4705882 C6.46595765,11.4705882 6.2734375,11.668256 6.2734375,11.9117647 C6.2734375,12.1552734 6.46595765,12.3529412 6.703125,12.3529412 C6.94029235,12.3529412 7.1328125,12.1552734 7.1328125,11.9117647 C7.1328125,11.668256 6.94029235,11.4705882 6.703125,11.4705882 Z" fill-rule="nonzero"></path>
                                <path d="M4.984375,11.4705882 C4.74720765,11.4705882 4.5546875,11.668256 4.5546875,11.9117647 C4.5546875,12.1552734 4.74720765,12.3529412 4.984375,12.3529412 C5.22154235,12.3529412 5.4140625,12.1552734 5.4140625,11.9117647 C5.4140625,11.668256 5.22154235,11.4705882 4.984375,11.4705882 Z" fill-rule="nonzero"></path>
                                <path d="M20.7109375,0 L1.2890625,0 C0.578231801,0 0,0.593692544 0,1.32352941 L0,13.6764706 C0,14.4063075 0.578231801,15 1.2890625,15 L20.7109375,15 C21.4217682,15 22,14.4063075 22,13.6764706 L22,1.32352941 C22,0.593692544 21.4217682,0 20.7109375,0 Z M21.140625,13.6764706 C21.140625,13.919807 20.947937,14.1176471 20.7109375,14.1176471 L1.2890625,14.1176471 C1.05206299,14.1176471 0.859375,13.919807 0.859375,13.6764706 L0.859375,1.32352941 C0.859375,1.08019301 1.05206299,0.882352941 1.2890625,0.882352941 L20.7109375,0.882352941 C20.947937,0.882352941 21.140625,1.08019301 21.140625,1.32352941 L21.140625,13.6764706 Z" fill-rule="nonzero"></path>
                                <path d="M3.265625,2.64705882 C3.02828977,2.64705882 2.8359375,2.84455421 2.8359375,3.08823529 L2.8359375,11.9117647 C2.8359375,12.1554458 3.02828977,12.3529412 3.265625,12.3529412 C3.50296023,12.3529412 3.6953125,12.1554458 3.6953125,11.9117647 L3.6953125,3.08823529 C3.6953125,2.84455421 3.50296023,2.64705882 3.265625,2.64705882 Z" fill-rule="nonzero"></path>
                                <path d="M4.984375,2.64705882 C4.74703977,2.64705882 4.5546875,2.84455421 4.5546875,3.08823529 L4.5546875,10.1470588 C4.5546875,10.3907399 4.74703977,10.5882353 4.984375,10.5882353 C5.22171023,10.5882353 5.4140625,10.3907399 5.4140625,10.1470588 L5.4140625,3.08823529 C5.4140625,2.84455421 5.22171023,2.64705882 4.984375,2.64705882 Z" fill-rule="nonzero"></path>
                                <path d="M6.703125,2.64705882 C6.46578977,2.64705882 6.2734375,2.84455421 6.2734375,3.08823529 L6.2734375,10.1470588 C6.2734375,10.3907399 6.46578977,10.5882353 6.703125,10.5882353 C6.94046023,10.5882353 7.1328125,10.3907399 7.1328125,10.1470588 L7.1328125,3.08823529 C7.1328125,2.84455421 6.94046023,2.64705882 6.703125,2.64705882 Z" fill-rule="nonzero"></path>
                                <path d="M8.421875,2.64705882 C8.18453977,2.64705882 7.9921875,2.84455421 7.9921875,3.08823529 L7.9921875,10.1470588 C7.9921875,10.3907399 8.18453977,10.5882353 8.421875,10.5882353 C8.65921023,10.5882353 8.8515625,10.3907399 8.8515625,10.1470588 L8.8515625,3.08823529 C8.8515625,2.84455421 8.65921023,2.64705882 8.421875,2.64705882 Z" fill-rule="nonzero"></path>
                                <path d="M10.140625,2.64705882 C9.90328977,2.64705882 9.7109375,2.84455421 9.7109375,3.08823529 L9.7109375,10.1470588 C9.7109375,10.3907399 9.90328977,10.5882353 10.140625,10.5882353 C10.3779602,10.5882353 10.5703125,10.3907399 10.5703125,10.1470588 L10.5703125,3.08823529 C10.5703125,2.84455421 10.3779602,2.64705882 10.140625,2.64705882 Z" fill-rule="nonzero"></path>
                                <path d="M11.859375,2.64705882 C11.6220398,2.64705882 11.4296875,2.84455421 11.4296875,3.08823529 L11.4296875,10.1470588 C11.4296875,10.3907399 11.6220398,10.5882353 11.859375,10.5882353 C12.0967102,10.5882353 12.2890625,10.3907399 12.2890625,10.1470588 L12.2890625,3.08823529 C12.2890625,2.84455421 12.0967102,2.64705882 11.859375,2.64705882 Z" fill-rule="nonzero"></path>
                                <path d="M13.578125,2.64705882 C13.3407898,2.64705882 13.1484375,2.84455421 13.1484375,3.08823529 L13.1484375,10.1470588 C13.1484375,10.3907399 13.3407898,10.5882353 13.578125,10.5882353 C13.8154602,10.5882353 14.0078125,10.3907399 14.0078125,10.1470588 L14.0078125,3.08823529 C14.0078125,2.84455421 13.8154602,2.64705882 13.578125,2.64705882 Z" fill-rule="nonzero"></path>
                                <path d="M15.296875,2.64705882 C15.0595398,2.64705882 14.8671875,2.84455421 14.8671875,3.08823529 L14.8671875,10.1470588 C14.8671875,10.3907399 15.0595398,10.5882353 15.296875,10.5882353 C15.5342102,10.5882353 15.7265625,10.3907399 15.7265625,10.1470588 L15.7265625,3.08823529 C15.7265625,2.84455421 15.5342102,2.64705882 15.296875,2.64705882 Z" fill-rule="nonzero"></path>
                                <path d="M17.015625,2.64705882 C16.7782898,2.64705882 16.5859375,2.84455421 16.5859375,3.08823529 L16.5859375,10.1470588 C16.5859375,10.3907399 16.7782898,10.5882353 17.015625,10.5882353 C17.2529602,10.5882353 17.4453125,10.3907399 17.4453125,10.1470588 L17.4453125,3.08823529 C17.4453125,2.84455421 17.2529602,2.64705882 17.015625,2.64705882 Z" fill-rule="nonzero"></path>
                                <path d="M18.734375,2.64705882 C18.4970398,2.64705882 18.3046875,2.84455421 18.3046875,3.08823529 L18.3046875,11.9117647 C18.3046875,12.1554458 18.4970398,12.3529412 18.734375,12.3529412 C18.9717102,12.3529412 19.1640625,12.1554458 19.1640625,11.9117647 L19.1640625,3.08823529 C19.1640625,2.84455421 18.9717102,2.64705882 18.734375,2.64705882 Z" fill-rule="nonzero"></path>
                            </g>
                        </g>
                    </g>
                </g>
            </g>
        </g>
    </g>
</svg>