<?xml version="1.0" encoding="UTF-8"?>
<svg width="12px" height="15px" viewBox="0 0 12 15" version="1.1" xmlns="http://www.w3.org/2000/svg" xmlns:xlink="http://www.w3.org/1999/xlink">
    <!-- Generator: Sketch 51.3 (57544) - http://www.bohemiancoding.com/sketch -->
    <title>padlock (25)</title>
    <desc>Created with Sketch.</desc>
    <defs></defs>
    <g id="Page-1" stroke="none" stroke-width="1" fill="none" fill-rule="evenodd">
        <g id="home-wawcadeiras" transform="translate(-1018.000000, -620.000000)" fill="#FF7000">
            <g id="meio" transform="translate(431.000000, 136.000000)">
                <g id="regua" transform="translate(0.000000, 484.000000)">
                    <g id="compra-segura" transform="translate(587.000000, 0.000000)">
                        <g id="padlock-(25)">
                            <g id="Shape">
                                <path d="M11.6890909,7.11645522 C11.4952364,6.91757463 11.26,6.81820896 10.9830182,6.81820896 L10.6509818,6.81820896 L10.6509818,4.77264925 C10.6509818,3.46585821 10.1942909,2.34380597 9.28061818,1.40630597 C8.36701818,0.468768657 7.27363636,0 5.99992727,0 C4.72625455,0 3.63265455,0.468768657 2.71912727,1.40626866 C1.80545455,2.34380597 1.34876364,3.4658209 1.34876364,4.77264925 L1.34876364,6.81820896 L1.01658182,6.81820896 C0.739818182,6.81820896 0.504436364,6.91757463 0.310618182,7.11645522 C0.1168,7.31518657 0.0199272727,7.55671642 0.0199272727,7.84097015 L0.0199272727,13.9772388 C0.0199272727,14.2612313 0.116836364,14.5028358 0.310618182,14.7017537 C0.504436364,14.9004478 0.739818182,14.9999254 1.01658182,14.9999254 L10.9832727,14.9999254 C11.2602545,14.9999254 11.4954545,14.9005597 11.6893455,14.7017537 C11.8829818,14.5028358 11.9800364,14.2612313 11.9800364,13.9772388 L11.9800364,7.84085821 C11.9801818,7.55682836 11.8829818,7.31533582 11.6890909,7.11645522 Z M8.65770909,6.81820896 L3.34214545,6.81820896 L3.34214545,4.77264925 C3.34214545,4.01985075 3.60174545,3.37705224 4.12083636,2.84447761 C4.64,2.31182836 5.26632727,2.0455597 6.00003636,2.0455597 C6.73381818,2.0455597 7.36,2.31179104 7.8792,2.84447761 C8.39814545,3.37701493 8.65770909,4.01985075 8.65770909,4.77264925 L8.65770909,6.81820896 Z" fill-rule="nonzero"></path>
                            </g>
                        </g>
                    </g>
                </g>
            </g>
        </g>
    </g>
</svg>