<?xml version="1.0" encoding="UTF-8"?>
<svg width="19px" height="16px" viewBox="0 0 19 16" version="1.1" xmlns="http://www.w3.org/2000/svg" xmlns:xlink="http://www.w3.org/1999/xlink">
    <!-- Generator: Sketch 51.3 (57544) - http://www.bohemiancoding.com/sketch -->
    <title>delivery-truck-silhouette (15)</title>
    <desc>Created with Sketch.</desc>
    <defs></defs>
    <g id="Page-1" stroke="none" stroke-width="1" fill="none" fill-rule="evenodd">
        <g id="home-wawcadeiras" transform="translate(-1267.000000, -620.000000)" fill="#FF7000">
            <g id="meio" transform="translate(431.000000, 136.000000)">
                <g id="regua" transform="translate(0.000000, 484.000000)">
                    <g id="frete-gratis" transform="translate(836.000000, 0.000000)">
                        <g id="delivery-truck-silhouette-(15)">
                            <g id="Shape">
                                <path d="M18.7666154,0.242183623 C18.6276538,0.0987791563 18.4625769,0.0268387097 18.2725,0.0268387097 L7.02788462,0.0268387097 C6.83757692,0.0268387097 6.67276923,0.0987791563 6.53376923,0.242183623 C6.39473077,0.3857866 6.32515385,0.55591067 6.32515385,0.75235732 L6.32515385,2.92875434 L4.56811538,2.92875434 C4.37042308,2.92875434 4.15619231,2.977866 3.92561538,3.07608933 C3.695,3.17447146 3.51019231,3.29516625 3.37115385,3.43876923 L1.19684615,5.68317618 C1.10173077,5.7813995 1.01946154,5.89466998 0.949769231,6.02322581 C0.880269231,6.15146402 0.829,6.26699752 0.796038462,6.36883375 C0.763153846,6.47094789 0.739230769,6.61058065 0.724730769,6.78832754 C0.710192308,6.96599504 0.700884615,7.09633747 0.697230769,7.17951365 C0.693730769,7.26257072 0.693730769,7.4062134 0.697230769,7.61028288 C0.700923077,7.81443176 0.702769231,7.94656079 0.702769231,8.0071067 L0.702769231,11.6343027 C0.5125,11.6343027 0.347807692,11.7060447 0.208653846,11.8498065 C0.0695769231,11.9930918 0,12.1632953 0,12.3597816 C0,12.4729727 0.0145384615,12.5732208 0.0438461538,12.6600099 C0.0731923077,12.7469578 0.122538462,12.816794 0.192230769,12.8697965 C0.261730769,12.922799 0.322153846,12.9661141 0.373346154,13.0002184 C0.424692308,13.0341638 0.510692308,13.0567543 0.631461538,13.0681489 C0.752230769,13.0795434 0.834538462,13.0871663 0.8785,13.0909777 C0.922461538,13.0945112 1.01573077,13.0945112 1.15846154,13.0909777 C1.30134615,13.0871663 1.38365385,13.0852605 1.40565385,13.0852605 L2.10838462,13.0852605 C2.10838462,13.8860546 2.38296154,14.570005 2.93188462,15.1368337 C3.481,15.7035434 4.14346154,15.9869777 4.9195,15.9869777 C5.69546154,15.9869777 6.358,15.7035434 6.907,15.1368337 C7.45611538,14.5700447 7.7305,13.8860546 7.7305,13.0852605 L11.9473077,13.0852605 C11.9473077,13.8860546 12.2218846,14.570005 12.7708462,15.1368337 C13.3197308,15.7035434 13.9823077,15.9869777 14.7583462,15.9869777 C15.5345385,15.9869777 16.1966923,15.7035434 16.7458462,15.1368337 C17.2949615,14.5700447 17.5693846,13.8860546 17.5693846,13.0852605 C17.5912308,13.0852605 17.6736538,13.0871663 17.8163077,13.0909777 C17.9591154,13.0945112 18.0524615,13.0945112 18.0963846,13.0909777 C18.1403846,13.0871663 18.2228846,13.0795434 18.3435769,13.0681489 C18.4643077,13.0567543 18.5502308,13.0342035 18.6015769,13.0002184 C18.6529231,12.9662333 18.7131538,12.922799 18.7826923,12.8697965 C18.8523077,12.816794 18.9018077,12.7469578 18.931,12.6600099 C18.9606154,12.5731811 18.9749615,12.472933 18.9749615,12.3597816 L18.9749615,0.752476427 C18.9751154,0.555990074 18.9056154,0.386064516 18.7666154,0.242183623 Z M5.90757692,14.1054094 C5.62953846,14.3924566 5.3,14.5363375 4.91934615,14.5363375 C4.53865385,14.5363375 4.20919231,14.3926154 3.931,14.1054094 C3.65280769,13.8184417 3.51376923,13.4782333 3.51376923,13.08534 C3.51376923,12.6924069 3.65296154,12.3520397 3.931,12.0649529 C4.20915385,11.7779851 4.53861538,11.634263 4.91934615,11.634263 C5.3,11.634263 5.6295,11.777866 5.90757692,12.0649529 C6.18588462,12.3520397 6.325,12.6924069 6.325,13.08534 C6.325,13.4782333 6.18588462,13.8184417 5.90757692,14.1054094 Z M6.325,7.28150868 L2.10823077,7.28150868 L2.10823077,6.94157816 C2.10823077,6.84331514 2.14111538,6.76017866 2.207,6.69212903 L4.34830769,4.4818263 C4.41415385,4.41377667 4.49480769,4.37987097 4.58996154,4.37987097 L6.325,4.37987097 L6.325,7.28150868 Z M15.7465385,14.1054094 C15.4684615,14.3924566 15.1389615,14.5363375 14.7583462,14.5363375 C14.3775769,14.5363375 14.0479615,14.3926154 13.7698846,14.1054094 C13.4917692,13.8184417 13.3526154,13.4782333 13.3526154,13.08534 C13.3526154,12.6924069 13.4917308,12.3520397 13.7698846,12.0649529 C14.0479615,11.7779851 14.3775769,11.634263 14.7583462,11.634263 C15.1389615,11.634263 15.4684615,11.777866 15.7465385,12.0649529 C16.0246538,12.3521985 16.1639231,12.6924069 16.1639231,13.08534 C16.1639231,13.4782333 16.0249231,13.8184417 15.7465385,14.1054094 Z" fill-rule="nonzero"></path>
                            </g>
                        </g>
                    </g>
                </g>
            </g>
        </g>
    </g>
</svg>