<svg width="23px" height="16px" viewBox="0 0 23 16" version="1.1" xmlns="http://www.w3.org/2000/svg">
    <title>truck (48)</title>
    <desc>Created with Sketch.</desc>
    <g id="home" stroke="none" stroke-width="1" fill="none" fill-rule="evenodd" transform="translate(-1016.000000, -1502.000000)">
        <g id="regua-e-news" transform="translate(431.000000, 1472.000000)" fill="#D4B65D" fill-rule="nonzero">
            <g id="Group-8" transform="translate(585.000000, 29.000000)">
                <g id="truck-(48)" transform="translate(11.500000, 9.000000) scale(-1, 1) translate(-11.500000, -9.000000) translate(0.000000, 1.000000)">
                    <path d="M22.1422131,10.7179169 L22.1422131,8.11903286 C22.1422131,7.13205208 21.3881148,6.33849969 20.4502049,6.33849969 L19.2813525,6.1450713 L17.2782787,2.97086175 C17.25,2.94606324 17.2264344,2.88654681 17.1981557,2.8617483 C16.8870902,2.42529448 16.3922131,2.12275263 15.8172131,2.12275263 L12.0184426,2.12275263 L12.0184426,1.016739 C12.0184426,0.456292622 11.622541,0 11.132377,0 L0.886065574,0 C0.395901639,0 0,0.456292622 0,1.016739 L0,7.96528208 L0,11.7346559 L0,11.9776813 L0,13.0192188 C0,13.5945443 0.443032787,14.0309981 0.96147541,14.0309981 L2.34241803,14.0309981 C2.65348361,15.1816491 3.6432377,16 4.84036885,16 C6.0375,16 7.0272541,15.1518909 7.33831967,14.0309981 L10.4866803,14.0309981 L15.8454918,14.0309981 C16.1565574,15.1816491 17.1463115,16 18.3434426,16 C19.5405738,16 20.5303279,15.1518909 20.8413934,14.0309981 L22.0385246,14.0309981 C22.5852459,14.0309981 23,13.5647861 23,13.0192188 L23,11.7346559 C23,11.2089275 22.6088115,10.7724737 22.1422131,10.7179169 Z M4.5,15 C3.6576087,15 3,14.3097826 3,13.5 C3,12.6902174 3.69021739,12 4.5,12 C5.3423913,12 6,12.6902174 6,13.5 C6,14.3097826 5.3423913,15 4.5,15 Z M14.1252741,6 C14.0578188,6 14,5.94096601 14,5.86046512 L14,3.13953488 C14,3.06440072 14.0530006,3 14.1252741,3 L16.2356615,3 C16.2790256,3 16.3175715,3.02146691 16.3368444,3.05903399 L17.9798629,5.77996422 C18.0328635,5.87119857 17.9750446,5.99463327 17.8786799,5.99463327 L14.1252741,5.99463327 L14.1252741,6 Z M18.5,15 C17.6576087,15 17,14.3097826 17,13.5 C17,12.6902174 17.6902174,12 18.5,12 C19.3423913,12 20,12.6902174 20,13.5 C20,14.3097826 19.3097826,15 18.5,15 Z" id="Shape"></path>
                </g>
            </g>
        </g>
    </g>
</svg>