<svg width="13px" height="16px" viewBox="0 0 13 16" xmlns="http://www.w3.org/2000/svg" xmlns:xlink="http://www.w3.org/1999/xlink">
    <path d="M12.9966786,13.8306748 L12.0666837,3.51411043 C12.0467552,3.28507157 11.850792,3.11165644 11.6216147,3.11165644 L9.70848237,3.11165644 C9.68191109,1.39059305 8.25370465,0 6.5,0 C4.74629535,0 3.31808891,1.39059305 3.29151763,3.11165644 L1.37838528,3.11165644 C1.14588656,3.11165644 0.953244762,3.28507157 0.9333163,3.51411043 L0.00332141032,13.8306748 C0.00332141032,13.8437628 0,13.8568507 0,13.8699387 C0,15.0445808 1.092744,16 2.43791518,16 L10.5620848,16 C11.907256,16 13,15.0445808 13,13.8699387 C13,13.8568507 13,13.8437628 12.9966786,13.8306748 Z M6.5,0.883435583 C7.75881451,0.883435583 8.7851303,1.87811861 8.81170158,3.11165644 L4.18829842,3.11165644 C4.2148697,1.87811861 5.24118549,0.883435583 6.5,0.883435583 Z M10.5620848,15.1165644 L2.43791518,15.1165644 C1.59427695,15.1165644 0.910066428,14.5668712 0.896780787,13.8895706 L1.78691875,3.99836401 L3.28819622,3.99836401 L3.28819622,5.3398773 C3.28819622,5.58527607 3.48748084,5.78159509 3.73658661,5.78159509 C3.98569239,5.78159509 4.18497701,5.58527607 4.18497701,5.3398773 L4.18497701,3.99836401 L8.81170158,3.99836401 L8.81170158,5.3398773 C8.81170158,5.58527607 9.0109862,5.78159509 9.26009198,5.78159509 C9.50919775,5.78159509 9.70848237,5.58527607 9.70848237,5.3398773 L9.70848237,3.99836401 L11.2097598,3.99836401 L12.1032192,13.8895706 C12.0899336,14.5668712 11.4024016,15.1165644 10.5620848,15.1165644 Z" id="Shape"></path>
</svg>