<!-- Generated by IcoMoon.io -->
<svg version="1.1" xmlns="http://www.w3.org/2000/svg" width="768" height="768" viewBox="0 0 768 768">
<title></title>
<g id="icomoon-ignore">
</g>
<path d="M512 448h-256c-89.6 0-160 70.4-160 160v64c0 19.2 12.8 32 32 32s32-12.8 32-32v-64c0-54.4 41.6-96 96-96h256c54.4 0 96 41.6 96 96v64c0 19.2 12.8 32 32 32s32-12.8 32-32v-64c0-89.6-70.4-160-160-160z"></path>
<path d="M384 384c89.6 0 160-70.4 160-160s-70.4-160-160-160-160 70.4-160 160 70.4 160 160 160zM384 128c54.4 0 96 41.6 96 96s-41.6 96-96 96-96-41.6-96-96 41.6-96 96-96z"></path>
</svg>
