<svg xmlns="http://www.w3.org/2000/svg" viewBox="0 0 100 100.02"><title>minicart--cart</title><g id="Camada_2" data-name="Camada 2"><g id="Camada_1-2" data-name="Camada 1"><path d="M25.7,79.19A10.42,10.42,0,1,0,36.12,89.61,10.5,10.5,0,0,0,25.7,79.19Zm0,15.28a4.86,4.86,0,1,1,4.86-4.86A4.92,4.92,0,0,1,25.7,94.47ZM79.88,79.19A10.42,10.42,0,1,0,90.3,89.61,10.5,10.5,0,0,0,79.88,79.19Zm0,15.28a4.86,4.86,0,1,1,4.86-4.86A4.92,4.92,0,0,1,79.88,94.47Zm-.69-38.9c1.94,0,4.45-1.53,5-3.47L99.61,25.42c1.53-3.47-1.67-7.36-5.14-7.36L22.23,9.72,18.06,0H2.64A3.1,3.1,0,0,0,0,2.78v4A3.26,3.26,0,0,0,2.64,9.72h8.47L24.31,49.6l-7.5,9.86S5.83,74.88,25,74.88H87.38A3,3,0,0,0,90.3,72.1v-4a3.14,3.14,0,0,0-2.92-2.92h-61l6.95-9.72,45.84.14Z"/></g></g></svg>