<?xml version="1.0" encoding="UTF-8"?>
<svg width="33px" height="25px" viewBox="0 0 33 25" version="1.1" xmlns="http://www.w3.org/2000/svg" xmlns:xlink="http://www.w3.org/1999/xlink">
    <!-- Generator: Sketch 51.3 (57544) - http://www.bohemiancoding.com/sketch -->
    <title>mail-black-envelope-symbol (18)</title>
    <desc>Created with Sketch.</desc>
    <defs></defs>
    <g id="Symbols" stroke="none" stroke-width="1" fill="none" fill-rule="evenodd">
        <g id="rodape-waw" transform="translate(-471.000000, -23.000000)" fill="#FFFFFF">
            <g id="newsletter">
                <g transform="translate(-0.000000, 0.000000)">
                    <g id="titulo" transform="translate(471.000000, 22.000000)">
                        <g id="mail-black-envelope-symbol-(18)" transform="translate(0.000000, 1.000000)">
                            <g id="Shape">
                                <path d="M32.9464259,20.8154795 C32.9464259,21.5440411 32.7432654,22.2194521 32.4178148,22.8136986 L22.0152778,11.0732877 L32.3050309,1.99219178 C32.7053086,2.63294521 32.9464259,3.38561644 32.9464259,4.1989726 L32.9464259,20.8154795 Z M16.4732469,13.205 L30.7911049,0.568013699 C30.2035556,0.243561644 29.5419259,0.0445890411 28.828216,0.0445890411 L4.11827778,0.0445890411 C3.40368519,0.0445890411 2.74185185,0.243561644 2.15667901,0.568013699 L16.4732469,13.205 Z M20.4649568,12.4404795 L17.1507654,15.3674658 C16.9569074,15.5378082 16.7155185,15.6228767 16.4732469,15.6228767 C16.2308395,15.6228767 15.9894506,15.5378082 15.7955926,15.3674658 L12.4806543,12.4403425 L1.94652469,24.3308219 C2.57793827,24.730411 3.31792593,24.9697945 4.11820988,24.9697945 L28.828216,24.9697945 C29.6283642,24.9697945 30.3686914,24.730411 30.9999012,24.3308219 L20.4649568,12.4404795 Z M0.641530864,1.99212329 C0.241320988,2.63287671 0,3.38554795 0,4.1989726 L0,20.8155479 C0,21.5441096 0.202209877,22.2195205 0.528882716,22.8137671 L10.9301975,11.0713014 L0.641530864,1.99212329 Z" fill-rule="nonzero"></path>
                            </g>
                        </g>
                    </g>
                </g>
            </g>
        </g>
    </g>
</svg>