<!-- Generated by IcoMoon.io -->
<svg version="1.1" xmlns="http://www.w3.org/2000/svg" width="10244" height="1024" viewBox="0 0 10244 1024">
<title></title>
<g id="icomoon-ignore">
</g>
<path fill="#d4b65d" d="M528.384 237.568l77.824 180.224 200.704 16.384c12.288 0 20.48 16.384 8.192 28.672l-151.552 126.976 45.056 188.416c4.096 12.288-12.288 24.576-24.576 16.384l-172.032-102.4-172.032 102.4c-12.288 8.192-28.672-4.096-24.576-16.384l45.056-188.416-151.552-126.976c-12.288-8.192-4.096-24.576 8.192-28.672l200.704-16.384 77.824-180.224c8.192-12.288 24.576-12.288 32.768 0z"></path>
<path fill="#d4b65d" d="M1552.384 237.568l77.824 180.224 200.704 16.384c12.288 0 20.48 16.384 8.192 28.672l-151.552 126.976 45.056 188.416c4.096 12.288-12.288 24.576-24.576 16.384l-172.032-102.4-172.032 102.4c-12.288 8.192-28.672-4.096-24.576-16.384l45.056-188.416-151.552-126.976c-12.288-8.192-4.096-24.576 8.192-28.672l200.704-16.384 77.824-180.224c8.192-12.288 24.576-12.288 32.768 0z"></path>
<path fill="#d4b65d" d="M2576.384 237.568l77.824 180.224 200.704 16.384c12.288 0 20.48 16.384 8.192 28.672l-151.552 126.976 45.056 188.416c4.096 12.288-12.288 24.576-24.576 16.384l-172.032-102.4-172.032 102.4c-12.288 8.192-28.672-4.096-24.576-16.384l45.056-188.416-151.552-126.976c-12.288-8.192-4.096-24.576 8.192-28.672l200.704-16.384 77.824-180.224c8.192-12.288 24.576-12.288 32.768 0z"></path>
<path fill="#d4b65d" d="M3600.384 237.568l77.824 180.224 200.704 16.384c12.288 0 20.48 16.384 8.192 28.672l-151.552 126.976 45.056 188.416c4.096 12.288-12.288 24.576-24.576 16.384l-172.032-102.4-172.032 102.4c-12.288 8.192-28.672-4.096-24.576-16.384l45.056-188.416-151.552-126.976c-12.288-8.192-4.096-24.576 8.192-28.672l200.704-16.384 77.824-180.224c8.192-12.288 24.576-12.288 32.768 0z"></path>
<path fill="#d4b65d" d="M4624.384 237.568l77.824 180.224 200.704 16.384c12.288 0 20.48 16.384 8.192 28.672l-151.552 126.976 45.056 188.416c4.096 12.288-12.288 24.576-24.576 16.384l-172.032-102.4-172.032 102.4c-12.288 8.192-28.672-4.096-24.576-16.384l45.056-188.416-151.552-126.976c-12.288-8.192-4.096-24.576 8.192-28.672l200.704-16.384 77.824-180.224c8.192-12.288 24.576-12.288 32.768 0z"></path>
<path fill="#e9dcb6" d="M5648.384 237.568l77.824 180.224 200.704 16.384c12.288 0 20.48 16.384 8.192 28.672l-151.552 126.976 45.056 188.416c4.096 12.288-12.288 24.576-24.576 16.384l-172.032-102.4-172.032 102.4c-12.288 8.192-28.672-4.096-24.576-16.384l45.056-188.416-151.552-126.976c-12.288-8.192-4.096-24.576 8.192-28.672l200.704-16.384 77.824-180.224c8.192-12.288 24.576-12.288 32.768 0z"></path>
<path fill="#e9dcb6" d="M6672.384 237.568l77.824 180.224 200.704 16.384c12.288 0 20.48 16.384 8.192 28.672l-151.552 126.976 45.056 188.416c4.096 12.288-12.288 24.576-24.576 16.384l-172.032-102.4-172.032 102.4c-12.288 8.192-28.672-4.096-24.576-16.384l45.056-188.416-151.552-126.976c-12.288-8.192-4.096-24.576 8.192-28.672l200.704-16.384 77.824-180.224c8.192-12.288 24.576-12.288 32.768 0z"></path>
<path fill="#e9dcb6" d="M7696.384 237.568l77.824 180.224 200.704 16.384c12.288 0 20.48 16.384 8.192 28.672l-151.552 126.976 45.056 188.416c4.096 12.288-12.288 24.576-24.576 16.384l-172.032-102.4-172.032 102.4c-12.288 8.192-28.672-4.096-24.576-16.384l45.056-188.416-151.552-126.976c-12.288-8.192-4.096-24.576 8.192-28.672l200.704-16.384 77.824-180.224c8.192-12.288 24.576-12.288 32.768 0z"></path>
<path fill="#e9dcb6" d="M8720.384 237.568l77.824 180.224 200.704 16.384c12.288 0 20.48 16.384 8.192 28.672l-151.552 126.976 45.056 188.416c4.096 12.288-12.288 24.576-24.576 16.384l-172.032-102.4-172.032 102.4c-12.288 8.192-28.672-4.096-24.576-16.384l45.056-188.416-151.552-126.976c-12.288-8.192-4.096-24.576 8.192-28.672l200.704-16.384 77.824-180.224c8.192-12.288 24.576-12.288 32.768 0z"></path>
<path fill="#e9dcb6" d="M9744.384 237.568l77.824 180.224 200.704 16.384c12.288 0 20.48 16.384 8.192 28.672l-151.552 126.976 45.056 188.416c4.096 12.288-12.288 24.576-24.576 16.384l-172.032-102.4-172.032 102.4c-12.288 8.192-28.672-4.096-24.576-16.384l45.056-188.416-151.552-126.976c-12.288-8.192-4.096-24.576 8.192-28.672l200.704-16.384 77.824-180.224c8.192-12.288 24.576-12.288 32.768 0z"></path>
</svg>
